<svg xmlns="http://www.w3.org/2000/svg" viewBox="0 0 512 512">
  <defs>
    <radialGradient id="background" cx="34%" cy="24%" r="82%">
      <stop offset="0" stop-color="#294638"/>
      <stop offset="0.55" stop-color="#142a21"/>
      <stop offset="1" stop-color="#09110e"/>
    </radialGradient>
    <linearGradient id="accent" x1="0" y1="0" x2="1" y2="1">
      <stop offset="0" stop-color="#ffe7a2"/>
      <stop offset="1" stop-color="#f0bd4f"/>
    </linearGradient>
    <filter id="shadow" x="-30%" y="-30%" width="160%" height="160%">
      <feDropShadow dx="0" dy="16" stdDeviation="18" flood-color="#000" flood-opacity="0.34"/>
    </filter>
  </defs>
  <rect width="512" height="512" fill="url(#background)"/>
  <circle cx="256" cy="256" r="176" fill="none" stroke="#fff" stroke-opacity="0.08" stroke-width="2"/>
  <path d="M142 342c48-17 76-49 92-97 17-52 49-87 118-105" fill="none" stroke="url(#accent)" stroke-width="18" stroke-linecap="round"/>
  <circle cx="143" cy="342" r="15" fill="#ffe29a"/>
  <circle cx="352" cy="140" r="15" fill="#f0bd4f"/>
  <g filter="url(#shadow)">
    <path d="M163 173h109c41 0 73 29 73 67 0 34-23 58-57 65l60 79h-57l-52-73h-29v73h-47V173Zm47 42v56h58c17 0 29-11 29-28 0-17-12-28-29-28h-58Z" fill="#fff"/>
    <path d="M310 172h45v47h-45z" fill="#ffe09a"/>
  </g>
  <rect x="151" y="409" width="210" height="4" rx="2" fill="#fff" fill-opacity="0.16"/>
</svg>
